<mxfile host="app.diagrams.net" modified="2024-10-05T23:12:35.337Z" agent="Mozilla/5.0 (Windows NT 10.0; Win64; x64) AppleWebKit/537.36 (KHTML, like Gecko) Chrome/129.0.0.0 Safari/537.36" etag="AqZmeh3S-dBfI02cGK9Y" version="24.3.1" type="device">
  <diagram name="1 oldal" id="11-3VVQxNiKuA98E-P0B">
    <mxGraphModel dx="1118" dy="675" grid="1" gridSize="10" guides="1" tooltips="1" connect="1" arrows="1" fold="1" page="1" pageScale="1" pageWidth="827" pageHeight="1169" math="0" shadow="0">
      <root>
        <mxCell id="0" />
        <mxCell id="1" parent="0" />
        <mxCell id="34_N02P4sdDhJquYUAQG-1" value="" style="strokeWidth=1;shadow=0;dashed=0;align=right;html=1;shape=mxgraph.mockup.containers.browserWindow;rSize=0;strokeColor=#666666;strokeColor2=#008cff;strokeColor3=#c4c4c4;mainText=,;recursiveResize=0;fontSize=16;" vertex="1" parent="1">
          <mxGeometry x="40" y="40" width="720" height="720" as="geometry" />
        </mxCell>
        <mxCell id="34_N02P4sdDhJquYUAQG-2" value="Page 1" style="strokeWidth=1;shadow=0;dashed=0;align=center;html=1;shape=mxgraph.mockup.containers.anchor;fontSize=17;fontColor=#666666;align=left;whiteSpace=wrap;" vertex="1" parent="34_N02P4sdDhJquYUAQG-1">
          <mxGeometry x="60" y="12" width="110" height="26" as="geometry" />
        </mxCell>
        <mxCell id="34_N02P4sdDhJquYUAQG-3" value="https://www.draw.io" style="strokeWidth=1;shadow=0;dashed=0;align=center;html=1;shape=mxgraph.mockup.containers.anchor;rSize=0;fontSize=17;fontColor=#666666;align=left;" vertex="1" parent="34_N02P4sdDhJquYUAQG-1">
          <mxGeometry x="130" y="60" width="250" height="26" as="geometry" />
        </mxCell>
        <mxCell id="34_N02P4sdDhJquYUAQG-10" value="" style="rounded=0;whiteSpace=wrap;html=1;" vertex="1" parent="34_N02P4sdDhJquYUAQG-1">
          <mxGeometry x="160" y="200" width="410" height="470" as="geometry" />
        </mxCell>
        <mxCell id="34_N02P4sdDhJquYUAQG-12" value="Új üzlet neve" style="strokeWidth=1;html=1;shadow=0;dashed=0;shape=mxgraph.ios.iTextInput;strokeColor=#444444;buttonText=;fontSize=12;whiteSpace=wrap;align=left;" vertex="1" parent="34_N02P4sdDhJquYUAQG-1">
          <mxGeometry x="295" y="290" width="130" height="30" as="geometry" />
        </mxCell>
        <mxCell id="34_N02P4sdDhJquYUAQG-34" value="" style="rounded=0;whiteSpace=wrap;html=1;" vertex="1" parent="34_N02P4sdDhJquYUAQG-1">
          <mxGeometry x="210" y="340" width="320" height="270" as="geometry" />
        </mxCell>
        <mxCell id="34_N02P4sdDhJquYUAQG-35" value="" style="rounded=0;whiteSpace=wrap;html=1;" vertex="1" parent="34_N02P4sdDhJquYUAQG-1">
          <mxGeometry x="240" y="360" width="260" height="40" as="geometry" />
        </mxCell>
        <mxCell id="34_N02P4sdDhJquYUAQG-39" value="Lidl" style="shape=rectangle;strokeColor=none;fillColor=none;linkText=;fontSize=17;fontColor=#0000ff;fontStyle=4;html=1;align=center;" vertex="1" parent="34_N02P4sdDhJquYUAQG-1">
          <mxGeometry x="285" y="365" width="150" height="30" as="geometry" />
        </mxCell>
        <mxCell id="34_N02P4sdDhJquYUAQG-42" value="" style="strokeColor=#999999;verticalLabelPosition=bottom;shadow=0;dashed=0;verticalAlign=top;strokeWidth=2;html=1;shape=mxgraph.mockup.misc.editIcon;" vertex="1" parent="34_N02P4sdDhJquYUAQG-1">
          <mxGeometry x="250" y="370" width="25" height="22.5" as="geometry" />
        </mxCell>
        <mxCell id="34_N02P4sdDhJquYUAQG-50" value="Üzletek" style="text;html=1;align=center;verticalAlign=middle;whiteSpace=wrap;rounded=0;fontSize=24;" vertex="1" parent="34_N02P4sdDhJquYUAQG-1">
          <mxGeometry x="310" y="220" width="105" height="30" as="geometry" />
        </mxCell>
        <mxCell id="34_N02P4sdDhJquYUAQG-51" value="" style="rounded=0;whiteSpace=wrap;html=1;" vertex="1" parent="34_N02P4sdDhJquYUAQG-1">
          <mxGeometry x="240" y="415" width="260" height="40" as="geometry" />
        </mxCell>
        <mxCell id="34_N02P4sdDhJquYUAQG-52" value="" style="rounded=0;whiteSpace=wrap;html=1;" vertex="1" parent="34_N02P4sdDhJquYUAQG-1">
          <mxGeometry x="240" y="470" width="260" height="40" as="geometry" />
        </mxCell>
        <mxCell id="34_N02P4sdDhJquYUAQG-54" value="Adidas" style="shape=rectangle;strokeColor=none;fillColor=none;linkText=;fontSize=17;fontColor=#0000ff;fontStyle=4;html=1;align=center;" vertex="1" parent="34_N02P4sdDhJquYUAQG-1">
          <mxGeometry x="290" y="475" width="150" height="30" as="geometry" />
        </mxCell>
        <mxCell id="34_N02P4sdDhJquYUAQG-53" value="Spár" style="shape=rectangle;strokeColor=none;fillColor=none;linkText=;fontSize=17;fontColor=#0000ff;fontStyle=4;html=1;align=center;" vertex="1" parent="34_N02P4sdDhJquYUAQG-1">
          <mxGeometry x="287.5" y="420" width="150" height="30" as="geometry" />
        </mxCell>
        <mxCell id="34_N02P4sdDhJquYUAQG-56" value="" style="strokeColor=#999999;verticalLabelPosition=bottom;shadow=0;dashed=0;verticalAlign=top;strokeWidth=2;html=1;shape=mxgraph.mockup.misc.editIcon;" vertex="1" parent="34_N02P4sdDhJquYUAQG-1">
          <mxGeometry x="250" y="480" width="25" height="25" as="geometry" />
        </mxCell>
        <mxCell id="34_N02P4sdDhJquYUAQG-55" value="" style="strokeColor=#999999;verticalLabelPosition=bottom;shadow=0;dashed=0;verticalAlign=top;strokeWidth=2;html=1;shape=mxgraph.mockup.misc.editIcon;" vertex="1" parent="34_N02P4sdDhJquYUAQG-1">
          <mxGeometry x="250" y="422.5" width="25" height="25" as="geometry" />
        </mxCell>
        <mxCell id="34_N02P4sdDhJquYUAQG-59" value="&lt;span style=&quot;color: rgba(0, 0, 0, 0); font-family: monospace; font-size: 0px; text-align: start;&quot;&gt;%3CmxGraphModel%3E%3Croot%3E%3CmxCell%20id%3D%220%22%2F%3E%3CmxCell%20id%3D%221%22%20parent%3D%220%22%2F%3E%3CmxCell%20id%3D%222%22%20value%3D%22%22%20style%3D%22strokeColor%3D%23999999%3BverticalLabelPosition%3Dbottom%3Bshadow%3D0%3Bdashed%3D0%3BverticalAlign%3Dtop%3BstrokeWidth%3D2%3Bhtml%3D1%3Bshape%3Dmxgraph.mockup.misc.editIcon%3B%22%20vertex%3D%221%22%20parent%3D%221%22%3E%3CmxGeometry%20x%3D%22290%22%20y%3D%22520%22%20width%3D%2225%22%20height%3D%2225%22%20as%3D%22geometry%22%2F%3E%3C%2FmxCell%3E%3C%2Froot%3E%3C%2FmxGraphModel%3E&lt;/span&gt;&lt;span style=&quot;color: rgba(0, 0, 0, 0); font-family: monospace; font-size: 0px; text-align: start;&quot;&gt;%3CmxGraphModel%3E%3Croot%3E%3CmxCell%20id%3D%220%22%2F%3E%3CmxCell%20id%3D%221%22%20parent%3D%220%22%2F%3E%3CmxCell%20id%3D%222%22%20value%3D%22%22%20style%3D%22strokeColor%3D%23999999%3BverticalLabelPosition%3Dbottom%3Bshadow%3D0%3Bdashed%3D0%3BverticalAlign%3Dtop%3BstrokeWidth%3D2%3Bhtml%3D1%3Bshape%3Dmxgraph.mockup.misc.editIcon%3B%22%20vertex%3D%221%22%20parent%3D%221%22%3E%3CmxGeometry%20x%3D%22290%22%20y%3D%22520%22%20width%3D%2225%22%20height%3D%2225%22%20as%3D%22geometry%22%2F%3E%3C%2FmxCell%3E%3C%2Froot%3E%3C%2FmxGraphModel%3E&lt;/span&gt;" style="verticalLabelPosition=bottom;verticalAlign=top;html=1;shape=mxgraph.flowchart.summing_function;fontSize=12;" vertex="1" parent="34_N02P4sdDhJquYUAQG-1">
          <mxGeometry x="260" y="292.5" width="25" height="25" as="geometry" />
        </mxCell>
        <mxCell id="34_N02P4sdDhJquYUAQG-131" value="" style="group" vertex="1" connectable="0" parent="34_N02P4sdDhJquYUAQG-1">
          <mxGeometry x="240" y="530" width="260" height="40" as="geometry" />
        </mxCell>
        <mxCell id="34_N02P4sdDhJquYUAQG-60" value="" style="rounded=0;whiteSpace=wrap;html=1;" vertex="1" parent="34_N02P4sdDhJquYUAQG-131">
          <mxGeometry width="260" height="40" as="geometry" />
        </mxCell>
        <mxCell id="34_N02P4sdDhJquYUAQG-61" value="OBI" style="shape=rectangle;strokeColor=none;fillColor=none;linkText=;fontSize=17;fontColor=#0000ff;fontStyle=4;html=1;align=center;" vertex="1" parent="34_N02P4sdDhJquYUAQG-131">
          <mxGeometry x="55" y="5" width="150" height="30" as="geometry" />
        </mxCell>
        <mxCell id="34_N02P4sdDhJquYUAQG-63" value="" style="strokeColor=#999999;verticalLabelPosition=bottom;shadow=0;dashed=0;verticalAlign=top;strokeWidth=2;html=1;shape=mxgraph.mockup.misc.editIcon;" vertex="1" parent="34_N02P4sdDhJquYUAQG-131">
          <mxGeometry x="10" y="5" width="25" height="25" as="geometry" />
        </mxCell>
        <mxCell id="34_N02P4sdDhJquYUAQG-44" value="" style="strokeWidth=1;shadow=0;dashed=0;align=center;html=1;shape=mxgraph.mockup.containers.browserWindow;rSize=0;strokeColor=#121111;strokeColor2=#008cff;strokeColor3=#c4c4c4;mainText=,;recursiveResize=0;labelBackgroundColor=none;" vertex="1" parent="1">
          <mxGeometry x="40" y="840" width="720" height="720" as="geometry" />
        </mxCell>
        <mxCell id="34_N02P4sdDhJquYUAQG-45" value="Page 2" style="strokeWidth=1;shadow=0;dashed=0;align=center;html=1;shape=mxgraph.mockup.containers.anchor;fontSize=17;fontColor=#666666;align=left;whiteSpace=wrap;" vertex="1" parent="34_N02P4sdDhJquYUAQG-44">
          <mxGeometry x="60" y="12" width="110" height="26" as="geometry" />
        </mxCell>
        <mxCell id="34_N02P4sdDhJquYUAQG-46" value="https://www.draw.io" style="strokeWidth=1;shadow=0;dashed=0;align=center;html=1;shape=mxgraph.mockup.containers.anchor;rSize=0;fontSize=17;fontColor=#666666;align=left;" vertex="1" parent="34_N02P4sdDhJquYUAQG-44">
          <mxGeometry x="130" y="60" width="250" height="26" as="geometry" />
        </mxCell>
        <mxCell id="34_N02P4sdDhJquYUAQG-48" value="" style="rounded=0;whiteSpace=wrap;html=1;" vertex="1" parent="34_N02P4sdDhJquYUAQG-44">
          <mxGeometry x="70" y="160" width="580" height="520" as="geometry" />
        </mxCell>
        <mxCell id="34_N02P4sdDhJquYUAQG-58" value="Vissza az üzletekhez" style="shape=rectangle;strokeColor=none;fillColor=none;linkText=;fontSize=17;fontColor=#0000ff;fontStyle=4;html=1;align=center;" vertex="1" parent="34_N02P4sdDhJquYUAQG-44">
          <mxGeometry x="230" y="630" width="200" height="30" as="geometry" />
        </mxCell>
        <mxCell id="34_N02P4sdDhJquYUAQG-106" value="OBI bevásárló lista" style="text;html=1;align=center;verticalAlign=middle;whiteSpace=wrap;rounded=0;fontSize=24;" vertex="1" parent="34_N02P4sdDhJquYUAQG-44">
          <mxGeometry x="200" y="180" width="240" height="30" as="geometry" />
        </mxCell>
        <mxCell id="34_N02P4sdDhJquYUAQG-127" value="&lt;span style=&quot;color: rgba(0, 0, 0, 0); font-family: monospace; font-size: 0px; text-align: start;&quot;&gt;%3CmxGraphModel%3E%3Croot%3E%3CmxCell%20id%3D%220%22%2F%3E%3CmxCell%20id%3D%221%22%20parent%3D%220%22%2F%3E%3CmxCell%20id%3D%222%22%20value%3D%22%22%20style%3D%22strokeColor%3D%23999999%3BverticalLabelPosition%3Dbottom%3Bshadow%3D0%3Bdashed%3D0%3BverticalAlign%3Dtop%3BstrokeWidth%3D2%3Bhtml%3D1%3Bshape%3Dmxgraph.mockup.misc.editIcon%3B%22%20vertex%3D%221%22%20parent%3D%221%22%3E%3CmxGeometry%20x%3D%22290%22%20y%3D%22520%22%20width%3D%2225%22%20height%3D%2225%22%20as%3D%22geometry%22%2F%3E%3C%2FmxCell%3E%3C%2Froot%3E%3C%2FmxGraphModel%3E&lt;/span&gt;&lt;span style=&quot;color: rgba(0, 0, 0, 0); font-family: monospace; font-size: 0px; text-align: start;&quot;&gt;%3CmxGraphModel%3E%3Croot%3E%3CmxCell%20id%3D%220%22%2F%3E%3CmxCell%20id%3D%221%22%20parent%3D%220%22%2F%3E%3CmxCell%20id%3D%222%22%20value%3D%22%22%20style%3D%22strokeColor%3D%23999999%3BverticalLabelPosition%3Dbottom%3Bshadow%3D0%3Bdashed%3D0%3BverticalAlign%3Dtop%3BstrokeWidth%3D2%3Bhtml%3D1%3Bshape%3Dmxgraph.mockup.misc.editIcon%3B%22%20vertex%3D%221%22%20parent%3D%221%22%3E%3CmxGeometry%20x%3D%22290%22%20y%3D%22520%22%20width%3D%2225%22%20height%3D%2225%22%20as%3D%22geometry%22%2F%3E%3C%2FmxCell%3E%3C%2Froot%3E%3C%2FmxGraphModel%3E&lt;/span&gt;" style="verticalLabelPosition=bottom;verticalAlign=top;html=1;shape=mxgraph.flowchart.summing_function;fontSize=12;" vertex="1" parent="34_N02P4sdDhJquYUAQG-44">
          <mxGeometry x="230" y="220" width="25" height="25" as="geometry" />
        </mxCell>
        <mxCell id="34_N02P4sdDhJquYUAQG-128" value="Új bevásárló lista elem" style="strokeWidth=1;html=1;shadow=0;dashed=0;shape=mxgraph.ios.iTextInput;strokeColor=#444444;buttonText=;fontSize=12;whiteSpace=wrap;align=left;" vertex="1" parent="34_N02P4sdDhJquYUAQG-44">
          <mxGeometry x="280" y="220" width="130" height="30" as="geometry" />
        </mxCell>
        <mxCell id="34_N02P4sdDhJquYUAQG-144" value="" style="rounded=0;whiteSpace=wrap;html=1;" vertex="1" parent="34_N02P4sdDhJquYUAQG-44">
          <mxGeometry x="160" y="270" width="410" height="360" as="geometry" />
        </mxCell>
        <mxCell id="34_N02P4sdDhJquYUAQG-157" value="" style="group" vertex="1" connectable="0" parent="34_N02P4sdDhJquYUAQG-44">
          <mxGeometry x="240" y="470" width="260" height="40" as="geometry" />
        </mxCell>
        <mxCell id="34_N02P4sdDhJquYUAQG-158" value="" style="rounded=0;whiteSpace=wrap;html=1;" vertex="1" parent="34_N02P4sdDhJquYUAQG-157">
          <mxGeometry width="260" height="40" as="geometry" />
        </mxCell>
        <mxCell id="34_N02P4sdDhJquYUAQG-159" value="" style="strokeColor=#999999;verticalLabelPosition=bottom;shadow=0;dashed=0;verticalAlign=top;strokeWidth=2;html=1;shape=mxgraph.mockup.misc.editIcon;" vertex="1" parent="34_N02P4sdDhJquYUAQG-157">
          <mxGeometry x="10" y="5" width="25" height="25" as="geometry" />
        </mxCell>
        <mxCell id="34_N02P4sdDhJquYUAQG-160" value="Festék" style="text;html=1;align=center;verticalAlign=middle;whiteSpace=wrap;rounded=0;" vertex="1" parent="34_N02P4sdDhJquYUAQG-157">
          <mxGeometry x="60" y="2.5" width="120" height="30" as="geometry" />
        </mxCell>
        <mxCell id="34_N02P4sdDhJquYUAQG-183" value="" style="shape=image;html=1;verticalAlign=top;verticalLabelPosition=bottom;labelBackgroundColor=#ffffff;imageAspect=0;aspect=fixed;image=https://cdn1.iconfinder.com/data/icons/material-core/18/check-box-outline-blank-128.png;labelBorderColor=#878282;" vertex="1" parent="34_N02P4sdDhJquYUAQG-157">
          <mxGeometry x="40" y="5" width="25" height="25" as="geometry" />
        </mxCell>
        <mxCell id="34_N02P4sdDhJquYUAQG-153" value="" style="group" vertex="1" connectable="0" parent="34_N02P4sdDhJquYUAQG-44">
          <mxGeometry x="240" y="410" width="260" height="40" as="geometry" />
        </mxCell>
        <mxCell id="34_N02P4sdDhJquYUAQG-154" value="" style="rounded=0;whiteSpace=wrap;html=1;" vertex="1" parent="34_N02P4sdDhJquYUAQG-153">
          <mxGeometry width="260" height="40" as="geometry" />
        </mxCell>
        <mxCell id="34_N02P4sdDhJquYUAQG-155" value="" style="strokeColor=#999999;verticalLabelPosition=bottom;shadow=0;dashed=0;verticalAlign=top;strokeWidth=2;html=1;shape=mxgraph.mockup.misc.editIcon;" vertex="1" parent="34_N02P4sdDhJquYUAQG-153">
          <mxGeometry x="10" y="5" width="25" height="25" as="geometry" />
        </mxCell>
        <mxCell id="34_N02P4sdDhJquYUAQG-156" value="Francia kulcs" style="text;html=1;align=center;verticalAlign=middle;whiteSpace=wrap;rounded=0;" vertex="1" parent="34_N02P4sdDhJquYUAQG-153">
          <mxGeometry x="60" y="2.5" width="120" height="30" as="geometry" />
        </mxCell>
        <mxCell id="34_N02P4sdDhJquYUAQG-184" value="" style="shape=image;html=1;verticalAlign=top;verticalLabelPosition=bottom;labelBackgroundColor=#ffffff;imageAspect=0;aspect=fixed;image=https://cdn1.iconfinder.com/data/icons/material-core/18/check-box-outline-blank-128.png;labelBorderColor=#878282;" vertex="1" parent="34_N02P4sdDhJquYUAQG-153">
          <mxGeometry x="40" y="7.5" width="25" height="25" as="geometry" />
        </mxCell>
        <mxCell id="34_N02P4sdDhJquYUAQG-149" value="" style="group" vertex="1" connectable="0" parent="34_N02P4sdDhJquYUAQG-44">
          <mxGeometry x="240" y="350" width="260" height="40" as="geometry" />
        </mxCell>
        <mxCell id="34_N02P4sdDhJquYUAQG-150" value="" style="rounded=0;whiteSpace=wrap;html=1;" vertex="1" parent="34_N02P4sdDhJquYUAQG-149">
          <mxGeometry width="260" height="40" as="geometry" />
        </mxCell>
        <mxCell id="34_N02P4sdDhJquYUAQG-151" value="" style="strokeColor=#999999;verticalLabelPosition=bottom;shadow=0;dashed=0;verticalAlign=top;strokeWidth=2;html=1;shape=mxgraph.mockup.misc.editIcon;" vertex="1" parent="34_N02P4sdDhJquYUAQG-149">
          <mxGeometry x="10" y="5" width="25" height="25" as="geometry" />
        </mxCell>
        <mxCell id="34_N02P4sdDhJquYUAQG-152" value="Véső" style="text;html=1;align=center;verticalAlign=middle;whiteSpace=wrap;rounded=0;glass=0;shadow=0;fillColor=default;gradientColor=none;" vertex="1" parent="34_N02P4sdDhJquYUAQG-149">
          <mxGeometry x="60" y="2.5" width="120" height="30" as="geometry" />
        </mxCell>
        <mxCell id="34_N02P4sdDhJquYUAQG-179" value="" style="shape=image;html=1;verticalAlign=top;verticalLabelPosition=bottom;labelBackgroundColor=#ffffff;imageAspect=0;aspect=fixed;image=https://cdn1.iconfinder.com/data/icons/material-core/18/check-box-outline-128.png" vertex="1" parent="34_N02P4sdDhJquYUAQG-149">
          <mxGeometry x="40" y="5" width="25" height="25" as="geometry" />
        </mxCell>
        <mxCell id="34_N02P4sdDhJquYUAQG-148" value="" style="group" vertex="1" connectable="0" parent="34_N02P4sdDhJquYUAQG-44">
          <mxGeometry x="240" y="289" width="260" height="40" as="geometry" />
        </mxCell>
        <mxCell id="34_N02P4sdDhJquYUAQG-141" value="" style="rounded=0;whiteSpace=wrap;html=1;" vertex="1" parent="34_N02P4sdDhJquYUAQG-148">
          <mxGeometry width="260" height="40" as="geometry" />
        </mxCell>
        <mxCell id="34_N02P4sdDhJquYUAQG-143" value="" style="strokeColor=#999999;verticalLabelPosition=bottom;shadow=0;dashed=0;verticalAlign=top;strokeWidth=2;html=1;shape=mxgraph.mockup.misc.editIcon;" vertex="1" parent="34_N02P4sdDhJquYUAQG-148">
          <mxGeometry x="10" y="5" width="25" height="25" as="geometry" />
        </mxCell>
        <mxCell id="34_N02P4sdDhJquYUAQG-146" value="Kalapács" style="text;html=1;align=center;verticalAlign=middle;whiteSpace=wrap;rounded=0;" vertex="1" parent="34_N02P4sdDhJquYUAQG-148">
          <mxGeometry x="60" y="2.5" width="120" height="30" as="geometry" />
        </mxCell>
        <mxCell id="34_N02P4sdDhJquYUAQG-178" value="" style="shape=image;html=1;verticalAlign=top;verticalLabelPosition=bottom;labelBackgroundColor=#ffffff;imageAspect=0;aspect=fixed;image=https://cdn1.iconfinder.com/data/icons/material-core/18/check-box-outline-blank-128.png;labelBorderColor=#878282;" vertex="1" parent="34_N02P4sdDhJquYUAQG-148">
          <mxGeometry x="40" y="5" width="25" height="25" as="geometry" />
        </mxCell>
        <mxCell id="34_N02P4sdDhJquYUAQG-71" value="Üzlet szerkesztése" style="html=1;shadow=0;dashed=0;shape=mxgraph.bootstrap.rrect;rSize=5;html=1;strokeColor=#C8C8C8;fillColor=#ffffff;whiteSpace=wrap;verticalAlign=top;align=left;fontSize=18;spacing=15;spacingTop=-5;" vertex="1" parent="1">
          <mxGeometry x="650" y="210" width="400" height="200" as="geometry" />
        </mxCell>
        <mxCell id="34_N02P4sdDhJquYUAQG-72" value="" style="shape=line;strokeColor=#dddddd;resizeWidth=1;" vertex="1" parent="34_N02P4sdDhJquYUAQG-71">
          <mxGeometry width="400" height="10" relative="1" as="geometry">
            <mxPoint y="50" as="offset" />
          </mxGeometry>
        </mxCell>
        <mxCell id="34_N02P4sdDhJquYUAQG-73" value="" style="html=1;shadow=0;dashed=0;shape=mxgraph.bootstrap.x;strokeColor=#868686;strokeWidth=2;" vertex="1" parent="34_N02P4sdDhJquYUAQG-71">
          <mxGeometry x="1" width="8" height="8" relative="1" as="geometry">
            <mxPoint x="-24" y="20" as="offset" />
          </mxGeometry>
        </mxCell>
        <mxCell id="34_N02P4sdDhJquYUAQG-75" value="" style="shape=line;strokeColor=#dddddd;resizeWidth=1;" vertex="1" parent="34_N02P4sdDhJquYUAQG-71">
          <mxGeometry width="400" height="10" relative="1" as="geometry">
            <mxPoint y="120" as="offset" />
          </mxGeometry>
        </mxCell>
        <mxCell id="34_N02P4sdDhJquYUAQG-76" value="Mentés" style="html=1;shadow=0;dashed=0;shape=mxgraph.bootstrap.rrect;rSize=5;fillColor=#0085FC;strokeColor=none;fontColor=#FFFFFF;fontSize=14;" vertex="1" parent="34_N02P4sdDhJquYUAQG-71">
          <mxGeometry x="1" y="1" width="110" height="40" relative="1" as="geometry">
            <mxPoint x="-130" y="-60" as="offset" />
          </mxGeometry>
        </mxCell>
        <mxCell id="34_N02P4sdDhJquYUAQG-77" value="Mégse" style="html=1;shadow=0;dashed=0;shape=mxgraph.bootstrap.rrect;rSize=5;fillColor=#6C757D;strokeColor=none;fontColor=#FFFFFF;fontSize=14;" vertex="1" parent="34_N02P4sdDhJquYUAQG-71">
          <mxGeometry x="1" y="1" width="70" height="40" relative="1" as="geometry">
            <mxPoint x="-220" y="-60" as="offset" />
          </mxGeometry>
        </mxCell>
        <mxCell id="34_N02P4sdDhJquYUAQG-81" value="Törlés" style="html=1;shadow=0;dashed=0;shape=mxgraph.bootstrap.rrect;rSize=5;strokeColor=none;strokeWidth=1;fillColor=#DB2843;fontColor=#FFFFFF;whiteSpace=wrap;align=center;verticalAlign=middle;spacingLeft=0;fontStyle=0;fontSize=16;spacing=5;" vertex="1" parent="34_N02P4sdDhJquYUAQG-71">
          <mxGeometry x="10" y="140" width="80" height="40" as="geometry" />
        </mxCell>
        <mxCell id="34_N02P4sdDhJquYUAQG-105" value="Lidl" style="strokeWidth=1;html=1;shadow=0;dashed=0;shape=mxgraph.ios.iTextInput;strokeColor=#444444;buttonText=;fontSize=14;whiteSpace=wrap;align=left;" vertex="1" parent="34_N02P4sdDhJquYUAQG-71">
          <mxGeometry x="40" y="70" width="270" height="25" as="geometry" />
        </mxCell>
        <mxCell id="34_N02P4sdDhJquYUAQG-80" style="edgeStyle=orthogonalEdgeStyle;rounded=0;orthogonalLoop=1;jettySize=auto;html=1;" edge="1" parent="1" source="34_N02P4sdDhJquYUAQG-42" target="34_N02P4sdDhJquYUAQG-71">
          <mxGeometry relative="1" as="geometry">
            <Array as="points">
              <mxPoint x="260" y="421" />
              <mxPoint x="260" y="310" />
            </Array>
          </mxGeometry>
        </mxCell>
        <mxCell id="34_N02P4sdDhJquYUAQG-162" value="Bevásárló lista elem szerkesztése" style="html=1;shadow=0;dashed=0;shape=mxgraph.bootstrap.rrect;rSize=5;html=1;strokeColor=#C8C8C8;fillColor=#ffffff;whiteSpace=wrap;verticalAlign=top;align=left;fontSize=18;spacing=15;spacingTop=-5;" vertex="1" parent="1">
          <mxGeometry x="660" y="1040" width="400" height="200" as="geometry" />
        </mxCell>
        <mxCell id="34_N02P4sdDhJquYUAQG-163" value="" style="shape=line;strokeColor=#dddddd;resizeWidth=1;" vertex="1" parent="34_N02P4sdDhJquYUAQG-162">
          <mxGeometry width="400" height="10" relative="1" as="geometry">
            <mxPoint y="50" as="offset" />
          </mxGeometry>
        </mxCell>
        <mxCell id="34_N02P4sdDhJquYUAQG-164" value="" style="html=1;shadow=0;dashed=0;shape=mxgraph.bootstrap.x;strokeColor=#868686;strokeWidth=2;" vertex="1" parent="34_N02P4sdDhJquYUAQG-162">
          <mxGeometry x="1" width="8" height="8" relative="1" as="geometry">
            <mxPoint x="-24" y="20" as="offset" />
          </mxGeometry>
        </mxCell>
        <mxCell id="34_N02P4sdDhJquYUAQG-165" value="" style="shape=line;strokeColor=#dddddd;resizeWidth=1;" vertex="1" parent="34_N02P4sdDhJquYUAQG-162">
          <mxGeometry width="400" height="10" relative="1" as="geometry">
            <mxPoint y="120" as="offset" />
          </mxGeometry>
        </mxCell>
        <mxCell id="34_N02P4sdDhJquYUAQG-166" value="Mentés" style="html=1;shadow=0;dashed=0;shape=mxgraph.bootstrap.rrect;rSize=5;fillColor=#0085FC;strokeColor=none;fontColor=#FFFFFF;fontSize=14;" vertex="1" parent="34_N02P4sdDhJquYUAQG-162">
          <mxGeometry x="1" y="1" width="110" height="40" relative="1" as="geometry">
            <mxPoint x="-130" y="-60" as="offset" />
          </mxGeometry>
        </mxCell>
        <mxCell id="34_N02P4sdDhJquYUAQG-167" value="Mégse" style="html=1;shadow=0;dashed=0;shape=mxgraph.bootstrap.rrect;rSize=5;fillColor=#6C757D;strokeColor=none;fontColor=#FFFFFF;fontSize=14;" vertex="1" parent="34_N02P4sdDhJquYUAQG-162">
          <mxGeometry x="1" y="1" width="70" height="40" relative="1" as="geometry">
            <mxPoint x="-220" y="-60" as="offset" />
          </mxGeometry>
        </mxCell>
        <mxCell id="34_N02P4sdDhJquYUAQG-168" value="Törlés" style="html=1;shadow=0;dashed=0;shape=mxgraph.bootstrap.rrect;rSize=5;strokeColor=none;strokeWidth=1;fillColor=#DB2843;fontColor=#FFFFFF;whiteSpace=wrap;align=center;verticalAlign=middle;spacingLeft=0;fontStyle=0;fontSize=16;spacing=5;" vertex="1" parent="34_N02P4sdDhJquYUAQG-162">
          <mxGeometry x="10" y="140" width="80" height="40" as="geometry" />
        </mxCell>
        <mxCell id="34_N02P4sdDhJquYUAQG-169" value="Kalapács" style="strokeWidth=1;html=1;shadow=0;dashed=0;shape=mxgraph.ios.iTextInput;strokeColor=#444444;buttonText=;fontSize=14;whiteSpace=wrap;align=left;" vertex="1" parent="34_N02P4sdDhJquYUAQG-162">
          <mxGeometry x="40" y="70" width="270" height="25" as="geometry" />
        </mxCell>
        <mxCell id="34_N02P4sdDhJquYUAQG-170" style="edgeStyle=orthogonalEdgeStyle;rounded=0;orthogonalLoop=1;jettySize=auto;html=1;" edge="1" parent="1" source="34_N02P4sdDhJquYUAQG-143" target="34_N02P4sdDhJquYUAQG-162">
          <mxGeometry relative="1" as="geometry">
            <Array as="points">
              <mxPoint x="303" y="1120" />
            </Array>
          </mxGeometry>
        </mxCell>
        <mxCell id="34_N02P4sdDhJquYUAQG-194" value="" style="verticalLabelPosition=bottom;shadow=0;dashed=0;align=center;html=1;verticalAlign=top;strokeWidth=1;shape=mxgraph.mockup.markup.line;strokeColor=#999999;" vertex="1" parent="1">
          <mxGeometry x="372" y="1199" width="59" height="20" as="geometry" />
        </mxCell>
      </root>
    </mxGraphModel>
  </diagram>
</mxfile>
